<svg xmlns="http://www.w3.org/2000/svg" viewBox="0 0 1700 500" preserveAspectRatio="xMidYMid meet" role="img" aria-labelledby="title desc">
  <title id="title">Seoul Online Issue Radar</title>
  <desc id="desc">Civic Radar Lab AI Issue Briefing Service webpage banner</desc>
  <defs>
    <filter id="softShadow" x="-6%" y="-10%" width="112%" height="124%">
      <feDropShadow dx="0" dy="20" stdDeviation="22" flood-color="#0f172a" flood-opacity="0.08"/>
    </filter>
    <radialGradient id="purpleSoft" cx="50%" cy="45%" r="55%">
      <stop offset="0%" stop-color="#f0eaff"/>
      <stop offset="100%" stop-color="#dfd5ff"/>
    </radialGradient>
  </defs>
  <rect x="18" y="18" width="1664" height="464" rx="44" fill="#ffffff" filter="url(#softShadow)"/>
  <g fill="#121827" font-family="Segoe UI, Pretendard, Noto Sans KR, Arial, sans-serif" font-weight="520">
    <text x="210" y="144" font-size="124" letter-spacing="-5">seoul</text>
    <text x="190" y="276" font-size="124" letter-spacing="-5">online</text>
    <text x="210" y="400" font-size="112" letter-spacing="-4">issue radar</text>
  </g>
  <circle cx="430" cy="104" r="15" fill="#8f7ae6"/>
  <circle cx="750" cy="130" r="16" fill="#a28cf0"/>
  <circle cx="820" cy="346" r="16" fill="#8f7ae6"/>
  <circle cx="120" cy="346" r="17" fill="#9b84ed"/>
  <path d="M414 205c22 15 35 38 35 67" fill="none" stroke="#9b84ed" stroke-width="13" stroke-linecap="round"/>
  <path d="M389 228c14 10 22 26 22 45" fill="none" stroke="#9b84ed" stroke-width="11" stroke-linecap="round"/>
  <circle cx="842" cy="363" r="14" fill="#8f7ae6"/>
  <line x1="980" y1="265" x2="980" y2="422" stroke="#121827" stroke-width="5" stroke-linecap="round"/>
  <circle cx="1132" cy="355" r="94" fill="url(#purpleSoft)"/>
  <g fill="#6550cf" font-family="Comic Sans MS, Segoe Print, cursive" font-weight="700" font-size="39" letter-spacing="7">
    <text x="1078" y="326">CIVIC</text>
    <text x="1064" y="374">RADAR</text>
    <text x="1095" y="421">LAB</text>
  </g>
  <text x="212" y="470" fill="#121827" font-family="Segoe UI, Pretendard, Noto Sans KR, Arial, sans-serif" font-size="35" font-weight="820" letter-spacing="22">AI Issue Briefing Service</text>
</svg>
